<svg height="512pt" viewBox="0 0 512 512" width="512pt" xmlns="http://www.w3.org/2000/svg" xmlns:xlink="http://www.w3.org/1999/xlink"><linearGradient id="a" gradientUnits="userSpaceOnUse" x1="0" x2="512" y1="256" y2="256"><stop offset="0" stop-color="#80d8ff"/><stop offset="1" stop-color="#ea80fc"/></linearGradient><path d="m156 256c0-11.046875 8.953125-20 20-20h60v-60c0-11.046875 8.953125-20 20-20s20 8.953125 20 20v60h60c11.046875 0 20 8.953125 20 20s-8.953125 20-20 20h-60v60c0 11.046875-8.953125 20-20 20s-20-8.953125-20-20v-60h-60c-11.046875 0-20-8.953125-20-20zm356-236v472c0 11.046875-8.953125 20-20 20h-472c-11.046875 0-20-8.953125-20-20v-472c0-11.046875 8.953125-20 20-20h472c11.046875 0 20 8.953125 20 20zm-40 20h-432v432h432zm0 0" fill="url(#a)"/></svg>